<svg xmlns="http://www.w3.org/2000/svg" width="21" height="20" viewBox="0 0 21 20"><g><g><path fill="#ffb46c" d="M16.712 20H4.088C2.127 20 .537 18.389.537 16.402V3.61c0-1.987 1.59-3.598 3.55-3.598h12.625c1.961 0 3.55 1.61 3.55 3.598v12.792c0 1.987-1.589 3.598-3.55 3.598zm-11.44-2h10.257c1.525 0 2.761-1.252 2.761-2.797V8.007h-2.714c.234.62.361 1.291.361 1.993 0 3.09-2.476 5.594-5.53 5.594-3.056 0-5.532-2.505-5.532-5.594 0-.702.128-1.374.361-1.993H2.51v7.196C2.51 16.748 3.746 18 5.27 18zM14.75 5.595h3.156V2.406H14.75zm-7.5 4.422c0 1.768 1.413 3.203 3.156 3.203s3.156-1.435 3.156-3.203c0-1.77-1.413-3.204-3.156-3.204S7.25 8.246 7.25 10.016z"/><path fill="#fff" d="M16.712 20H4.088C2.127 20 .537 18.389.537 16.402V3.61c0-1.987 1.59-3.598 3.55-3.598h12.625c1.961 0 3.55 1.61 3.55 3.598v12.792c0 1.987-1.589 3.598-3.55 3.598zm-11.44-2h10.257c1.525 0 2.761-1.252 2.761-2.797V8.007h-2.714c.234.62.361 1.291.361 1.993 0 3.09-2.476 5.594-5.53 5.594-3.056 0-5.532-2.505-5.532-5.594 0-.702.128-1.374.361-1.993H2.51v7.196C2.51 16.748 3.746 18 5.27 18zM14.75 5.595h3.156V2.406H14.75zm-7.5 4.422c0 1.768 1.413 3.203 3.156 3.203s3.156-1.435 3.156-3.203c0-1.77-1.413-3.204-3.156-3.204S7.25 8.246 7.25 10.016z"/></g></g></svg>