<svg xmlns="http://www.w3.org/2000/svg" width="15" height="20" viewBox="0 0 15 20"><g><g><path fill="#ffb46c" d="M7.036 11.205s.53 1.07 1.578 1.2c1.046.128 3.883-1.815 3.945-5.197.061-3.382-.632-4.354-3.55-5.197-2.949-.852-5.396.598-6.313 3.198-1.04 2.949-.19 3.662.394 4.397l-.394 1.999s-2.831-.972-2.762-3.998C.004 4.582 1.704.006 7.824.006c6.057 0 7.531 5.87 7.102 8.001-.43 2.13-.767 5.012-5.129 5.996 0 0-2.553.68-3.408-1.204-.517 2.027-1.042 3.907-1.326 4.402-.684 1.193-1.973 2.787-1.973 2.787s.37-3.593.395-4.386c.04-1.223 1.183-6.795 1.183-6.795S3.587 4.899 6.247 4.41c0 0 2.156-.524 1.578 2.398 0 0-.434 1.921-.97 4.122z"/><path fill="#fff" d="M7.036 11.205s.53 1.07 1.578 1.2c1.046.128 3.883-1.815 3.945-5.197.061-3.382-.632-4.354-3.55-5.197-2.949-.852-5.396.598-6.313 3.198-1.04 2.949-.19 3.662.394 4.397l-.394 1.999s-2.831-.972-2.762-3.998C.004 4.582 1.704.006 7.824.006c6.057 0 7.531 5.87 7.102 8.001-.43 2.13-.767 5.012-5.129 5.996 0 0-2.553.68-3.408-1.204-.517 2.027-1.042 3.907-1.326 4.402-.684 1.193-1.973 2.787-1.973 2.787s.37-3.593.395-4.386c.04-1.223 1.183-6.795 1.183-6.795S3.587 4.899 6.247 4.41c0 0 2.156-.524 1.578 2.398 0 0-.434 1.921-.97 4.122z"/></g></g></svg>