<svg xmlns="http://www.w3.org/2000/svg" width="20" height="17" viewBox="0 0 20 17"><g><g><path fill="#ffb46c" d="M17.655 3.41l1.986-.4s-1.664 1.895-1.986 1.998c-.003.001-.007-.002-.01-.002-.043.924.01 1.202.01 1.202-3.796 16.48-17.766 9.194-17.766 9.194 5.082.135 5.536-1.999 5.536-1.999-2.977-.455-3.551-2.398-3.551-2.398 1.012.466 1.578-.4 1.578-.4C.239 9.765.69 6.607.69 6.607c.537.497 1.414.686 1.937.758-.364-.427-3.362-4.07-1.542-5.955 0 0 2.19 3.991 7.99 4.373l.387-.098a4.262 4.262 0 0 1-.092-.876C9.37 2.49 11.224.61 13.512.61c2.758 0 3.354 1.599 3.354 1.599l1.972-1.199s-.216 2.004-1.183 2.399z"/><path fill="#fff" d="M17.655 3.41l1.986-.4s-1.664 1.895-1.986 1.998c-.003.001-.007-.002-.01-.002-.043.924.01 1.202.01 1.202-3.796 16.48-17.766 9.194-17.766 9.194 5.082.135 5.536-1.999 5.536-1.999-2.977-.455-3.551-2.398-3.551-2.398 1.012.466 1.578-.4 1.578-.4C.239 9.765.69 6.607.69 6.607c.537.497 1.414.686 1.937.758-.364-.427-3.362-4.07-1.542-5.955 0 0 2.19 3.991 7.99 4.373l.387-.098a4.262 4.262 0 0 1-.092-.876C9.37 2.49 11.224.61 13.512.61c2.758 0 3.354 1.599 3.354 1.599l1.972-1.199s-.216 2.004-1.183 2.399z"/></g></g></svg>